<svg xmlns="http://www.w3.org/2000/svg" width="812" height="583.082" viewBox="0 0 812 583.082"><g transform="translate(-231 -113.438)"><path d="M46.753,19.285V18.194c0-16.375-14.192-29.658-41.119-29.658H-33.305v60.59H5.634c26.927,0,41.119-13.557,41.119-29.841m-32.206.183c0,6.094-3,11.19-11.19,11.19h-5V6.822h5c8.19,0,11.19,5.094,11.19,11.19ZM122.079,49.126V28.11H84.325V22.925h23.653V13.646H84.325V7.913h37.754V-11.464H52.667v60.59Zm113.445,0v-60.59H192.4l-8.187,23.745L182.76,17.1,181.3,12.281l-8.187-23.745H128.538v60.59h26.93V16.466l2.546,7.459,8.735,25.2h27.2l8.824-25.2,2.546-7.459v32.66Zm88.246-29.841V18.194c0-17.649-15.194-31.932-41.122-31.932-26.019,0-41.211,14.283-41.211,31.932v1.091c0,17.557,15.192,32.115,41.211,32.115,25.927,0,41.122-14.557,41.122-32.115m-32.3.274c0,6.639-1.454,12.827-8.824,12.827s-8.916-6.187-8.916-12.827V18.011c0-6.731,1.548-12.918,8.916-12.918s8.824,6.187,8.824,12.918ZM404.825,41.028,394,26.018c-3.822,2.728-11.1,5.368-18.105,5.368-9.187,0-16.192-4.913-16.192-12.375v-.363c0-7.459,7-12.372,16.192-12.372A34.418,34.418,0,0,1,394,11.644L405.828-3.368c-7.187-6-20.651-10.37-34.571-10.37-26.564,0-43.85,13.281-43.85,32.2v.728c0,18.923,17.286,32.206,43.85,32.206,13.92,0,25.747-3.822,33.569-10.372m82.787,8.1v-.911c-2.365-2.548-3.276-5.368-3.276-9.187v-5c0-7-2.911-13.192-13.464-14.192,8.916-1.728,14.466-7.733,14.466-13.555v-.82c0-9.733-9.918-16.92-26.384-16.92h-48.67v60.59h31.567V27.747h5.276c4.639,0,5.55,2.183,5.55,6.459v5.548c0,5.368,3.639,9.372,7.279,9.372Zm-34.3-37.665c0,3-1.728,5-6.459,5h-5V6.822h5c4.731,0,6.459,1.183,6.459,4.368ZM572.036,49.126l-27.293-60.59H512.174l-26.747,60.59h27.656l4.094-10.555h18.468l3.548,10.555ZM531.1,24.744h-8.37l4.457-11.372ZM645.179,41.028,634.352,26.018c-3.822,2.728-11.1,5.368-18.1,5.368-9.19,0-16.194-4.913-16.194-12.375v-.363c0-7.459,7-12.372,16.194-12.372a34.409,34.409,0,0,1,18.1,5.368L646.179-3.368c-7.187-6-20.651-10.37-34.571-10.37-26.564,0-43.848,13.281-43.848,32.2v.728c0,18.923,17.283,32.206,43.848,32.206,13.92,0,25.747-3.822,33.571-10.372m37.115-52.492H650.635v60.59h31.658Zm0,60.59,88.337,0-27.293-60.59H710.769l-26.747,60.59h27.656l4.094-10.555h18.468l3.548,10.555ZM729.691,24.744h-8.37l4.457-11.372Z" transform="translate(269.296 645.12)"/><path d="M24.933,62.929V44.5H2.4V17.243h14.81V.859H2.4v-25.05H24.933v-17.8H-17.761V62.929Zm76.246,0L86.054-41.994H62.74L47.459,62.929H65.732l1.733-16.858H79.439l1.418,16.858ZM77.706,29.687H69.67l4.57-40.8Zm137.372-4.252V-2.608c0-23.317-11.973-39.386-41.905-39.386H128.587V62.929h44.586c29.932,0,41.905-14.178,41.905-37.494m-33.083.788c0,8.978-3.781,11.815-11.5,11.815h-8.981v-55.3h8.981c7.719,0,11.5,2.836,11.5,11.815ZM302.355,62.929V36.146H260.45V18.5h27.41V.229H260.45V-16.944h41.905v-25.05H227.522V62.929Zm85.227-80.818V-41.994h-73.1V62.929h32.927V22.284h24.418V.385H347.409V-17.889Zm84.126,80.818V36.146H429.8V18.5h27.413V.229H429.8V-16.944h41.905v-25.05h-74.83V62.929ZM561.032,32.05c0-32.136-49.311-31.035-49.311-44.583,0-5.356,3.151-8.192,9.139-8.192,7.4,0,10.711,4.255,10.711,10.555v3.781h28.516v-5.671c0-19.694-14.336-32.769-39.386-32.769s-39.857,14.651-39.857,33.083c0,32.3,48.994,31.665,48.994,45.528,0,5.2-2.519,8.036-10.711,8.036-7.406,0-11.658-3.625-11.658-10.714V27.168H478.952v4.726c0,21.269,14.336,34.028,41.908,34.028,26.939,0,40.172-15.6,40.172-33.872m96.255,30.879L629.4-41.994H591.75L563.71,62.929h29.3l3.937-15.6h23.317l3.308,15.6ZM616.012,26.853H601.991l7.562-33.872ZM732.276,39.771V-17.574c0-15.754-10.4-24.42-24.105-24.42H682.02V62.929h26.151c13.706,0,24.105-7.4,24.105-23.158m-20.165-.945c0,4.411-1.733,6.615-5.673,6.615h-4.1V-24.506h4.1c3.94,0,5.673,2.363,5.673,6.774Zm76.566,24.1L773.552-41.994H750.237L734.954,62.929H753.23l1.733-16.858h11.973l1.416,16.858ZM765.2,29.687h-8.036l4.57-40.8Z" transform="translate(251.808 545.561)"/><path d="M80.963,33.4V31.507c0-28.358-24.576-51.36-71.208-51.36H-57.674V85.071H9.755c46.631,0,71.208-23.475,71.208-51.674m-55.77.315c0,10.555-5.2,19.377-19.377,19.377H-2.848V11.813H5.815c14.18,0,19.377,8.822,19.377,19.377ZM222.9,85.071,175.643-19.853h-56.4L72.927,85.071H120.82l7.089-18.276h31.98l6.144,18.276ZM152.012,42.848H137.519l7.719-19.692ZM402.857,85.071,355.594-19.853H299.2L252.877,85.071H300.77l7.089-18.276h31.983l6.144,18.276ZM331.965,42.848H317.47l7.721-19.692ZM461.3-19.853H406.48V85.071H461.3Zm0,104.923M613.329,33.4V31.507c0-28.358-24.576-51.36-71.208-51.36H474.692V85.071h67.429c46.631,0,71.208-23.475,71.208-51.674m-55.77.315c0,10.555-5.2,19.377-19.377,19.377h-8.663V11.813h8.663c14.18,0,19.377,8.822,19.377,19.377ZM751.49,50.1c0-38.6-74.674-29.146-74.674-40.331,0-2.993,4.726-4.411,12.288-4.411,11.185,0,27.569,2.993,45.057,8.351L750.074-10.4C738.886-16.545,714.94-23.79,685.323-23.79c-43.009,0-65.064,16.541-65.064,36.547,0,40.016,77.982,32.454,77.982,42.538,0,2.836-5.512,4.567-14.651,4.567-13.233,0-32.769-3.308-52.934-11.656L615.848,73.569c15.122,8.981,41.905,15.44,67.112,15.44,47.263,0,68.53-15.281,68.53-38.913" transform="translate(290.278 394.789)"/><path d="M30.176,49.095V-9.865c0-16.2-10.69-25.108-24.783-25.108H-21.5V72.907H5.393c14.093,0,24.783-7.615,24.783-23.812M9.443,48.124c0,4.534-1.781,6.8-5.832,6.8H-.6V-16.993H3.612c4.05,0,5.832,2.43,5.832,6.966ZM88.165,72.907,72.615-34.973H48.642L32.931,72.907h18.79L53.5,55.573h12.31l1.457,17.334ZM64.031,38.727H55.769l4.7-41.951Zm122.3,34.18V51.2H139.522V25.607h32.72V8.762h-32.72V-14.077h46.812v-20.9H113.6V72.907ZM281.253,4.875V-6.139c0-17.009-11.178-28.834-32.557-28.834H201.4V72.907h25.918V33.545H248.7c21.379,0,32.557-11.663,32.557-28.67m-25.43.81c0,6.317-3.079,10.2-10.853,10.2H227.314v-31.1h17.492c7.937,0,11.017,3.726,11.017,10.043Zm65.436-40.658H295.341V72.9h25.918Zm0,107.88M425.25,35.165V3.74c0-22.189-13.122-38.713-41.953-38.713H340.21V72.907H383.3c28.831,0,41.953-15.55,41.953-37.742M399.171,35c0,11.336-6,17.168-17.819,17.168H366.126v-66.41h15.226c11.824,0,17.819,5.829,17.819,17.168Zm115.163,37.9V51.2H467.523V25.607h32.72V8.762h-32.72V-14.077h46.812v-20.9H441.607V72.907Zm127.8,0V-34.973h-34.5L590.3,20.749,586.253,34.84,582.2,20.749,564.547-34.973H529.4V72.907h23.487V.014l5.344,18.952,17.495,53.941h18.141l17.817-53.941L617.354-.147V72.907ZM687-34.973H661.084V72.9H687Zm0,107.88,103.5,0L757.947-34.973H729.6l-32.4,107.88H721.34L727.657,51.2h30.129l6.154,21.706ZM753.25,33.384H732.517L743.046-5.654Z" transform="translate(252.496 273.819)"/><path d="M28.3,47.416V-8.463c0-14.509-8.49-25.314-24.235-25.314S-20.163-22.972-20.163-8.463V47.416c0,14.663,8.49,25.314,24.233,25.314S28.3,62.079,28.3,47.416M15.493,48.805C15.493,55.906,11.634,61,4.07,61c-7.716,0-11.42-5.094-11.42-12.194V-9.85c0-6.947,3.7-12.194,11.42-12.194,7.565,0,11.423,5.247,11.423,12.194ZM96.116,70.879V59.147H68.64V23.027H88.551V11.761H68.64V-20.193H96.116V-31.924H55.828v102.8Zm60.352,0v-102.8H144.273V37.383l-6.327-17.442L117.724-31.924H106.765v102.8h12.194V2.5l6.793,17.288,21.454,51.093Zm53.408-91.226V-31.924h-39.67v102.8h12.966V24.57h20.682V13.3H183.172V-20.347ZM268.838,71.8V62.7c-2.625,0-3.55-1.233-3.55-4.012V36.765c0-7.409-3.4-14.355-11.423-16.053,8.18-2.007,10.959-7.565,10.959-16.363V-11.239c0-14.2-7.409-20.685-20.531-20.685H219.135v102.8H232.1V25.806h11.577c6.019,0,8.8,4.014,8.8,10.187V59.457c0,9.57,3.55,12.348,12.966,12.348ZM252.012,5.431c0,6.483-3.4,10.033-9.106,10.033H232.1V-20.347h12.038c5.558,0,7.872,3.24,7.872,8.644Zm66.374,65.448V59.147H290.907V23.027h19.913V11.761H290.907V-20.193h27.478V-31.924H278.1v102.8Zm60.352,0v-102.8H366.543V37.383l-6.329-17.442L339.993-31.924H329.034v102.8h12.194V2.5l6.791,17.288,21.456,51.093Zm56.03-90.919V-31.924H387.379v11.884h17.442V70.879h12.812V-20.039Zm51.247,90.919-19.141-102.8H453.291L434,70.879H446.19l4.322-23.617h18.214l4.168,23.617Zm-19.3-35.04h-14.2l7.255-43.992Zm93.231,35.04v-102.8h-17.9L530.624,31.825l-3.243,18.834-3.394-18.677-11.579-63.9H494.194v102.8h11.423V-8l3.4,18.677,11.73,60.2h12.348l11.73-60.2L548.219-8V70.879Zm54.335,0V59.147H586.81V23.027h19.911V11.761H586.81V-20.193h27.475V-31.924H574v102.8Zm60.352,0v-102.8H662.443V37.383l-6.329-17.442L635.893-31.924H624.934v102.8h12.194V2.5l6.793,17.288,21.454,51.093Zm56.03-90.919V-31.924H683.279v11.884h17.444V70.879h12.81V-20.039Zm55.107,67.455V-8.463c0-14.509-8.49-25.314-24.235-25.314S737.307-22.972,737.307-8.463V47.416c0,14.663,8.488,25.314,24.233,25.314s24.235-10.651,24.235-25.314m-12.812,1.389c0,7.1-3.858,12.194-11.423,12.194-7.716,0-11.423-5.094-11.423-12.194V-9.85c0-6.947,3.707-12.194,11.423-12.194,7.565,0,11.423,5.247,11.423,12.194Z" transform="translate(252.333 147.215)"/></g></svg>