<svg xmlns="http://www.w3.org/2000/svg" width="1377.996" height="738.386" viewBox="0 0 1377.996 738.386"><defs><style>.a{fill:#f39626;}</style></defs><g transform="translate(1432.996 9914.385) rotate(180)"><rect class="a" width="1366" height="684" transform="translate(60.998 9218.385)"/><g transform="translate(1426.998 9902.385) rotate(180)"><g transform="translate(0 -12)"><path class="a" d="M47.04,0l-68.3,3.612H447.083L312.436,0Z" transform="translate(21.26)"/></g><g transform="translate(0 -12)"><path class="a" d="M919.3,0,849.048,3.612,755.377,0h-141.2l-41.3,3.612H-415.478V12h1366V1.8Z" transform="translate(415.478)"/></g></g><g transform="translate(1432.996 9451.777) rotate(180)"><g transform="translate(0 -117.607)"><path class="a" d="M4.129,246.082l85.513,42.36,136.5-13.477L378.5,286.14h645.989l161.382-18.193,81.234-15.343h105.967l3.161-357.26-1378-.288Z" transform="translate(1.761 104.943)"/></g></g></g></svg>