<svg xmlns="http://www.w3.org/2000/svg" xmlns:xlink="http://www.w3.org/1999/xlink" width="1366" height="34.421" viewBox="0 0 1366 34.421"><defs><style>.a{fill:#f39626;}.b{clip-path:url(#a);}</style><clipPath id="a"><path class="a" d="M0,736.709H34.421v-1366H0Z" transform="translate(0 629.291)"/></clipPath></defs><g transform="translate(736.709) rotate(90)"><g class="b" transform="translate(0 -629.291)"><g transform="translate(0 -0.001)"><path class="a" d="M0,0V320.223c0,32.56,4.252,79.732,4.252,79.732V417.9c0,32.56-2.126,21.538-2.126,32.56v20.25c0,12.31-6.378,44.87-2.126,77.431s4.252,26.146,4.252,45.632v117.17c0,32.56,2.857,19.23,0,32.56s1.27,0,1.27,32.56-4.4,19.48,0,42.3,8.8,22.821,4.4,22.821,0,32.558,0,54.094V919.9c0,18.974-4.78,22.3-4.78,36.917s-4.78-17.943,0,14.617,6.6,34.864,6.6,49.991v24.614c0,9.23-6.6,43.588-6.6,55.637v144.34c0,18.462-6.6,4.357,0,27.689s-.889,9.844-.889,18.46c0,17.771,6.236,20.3,1.984,35.688s-3.4-23.383-.567,7.383,2.835,18.46,2.835,18.46L7.087,1366H-22.677V0Z" transform="translate(22.677)"/></g></g></g></svg>